<svg width="72" height="72" viewBox="0 0 72 72" fill="none" xmlns="http://www.w3.org/2000/svg">
<path d="M31.1375 35.1693C26.9427 34.3098 23.2634 31.8299 20.9089 28.2752C18.5545 24.7204 17.7178 20.382 18.5828 16.2144C19.4479 12.0467 21.9439 8.39115 25.5218 6.05191C29.0996 3.71267 33.4663 2.88135 37.6611 3.74083L34.3993 19.455L31.1375 35.1693Z" fill="#5584CE"/>
<path d="M40.5994 0.43642C44.8011 1.26151 48.5009 3.71117 50.8848 7.24649C53.2687 10.7818 54.1414 15.1132 53.3109 19.2878C52.4805 23.4624 50.0149 27.1383 46.4565 29.5068C42.8982 31.8752 38.5386 32.7423 34.3369 31.9172L37.4681 16.1768L40.5994 0.43642Z" fill="#ED3237"/>
<path d="M12.1503 51.63C11.5177 51.63 10.9587 51.5477 10.4733 51.383C9.99667 51.2183 9.59367 50.9757 9.26433 50.655C8.935 50.3257 8.688 49.9183 8.52333 49.433C8.35867 48.9477 8.27633 48.3843 8.27633 47.743V43.076C8.27633 42.79 8.34567 42.5777 8.48433 42.439C8.63167 42.3003 8.83967 42.231 9.10833 42.231C9.377 42.231 9.58067 42.3003 9.71933 42.439C9.86667 42.5777 9.94033 42.79 9.94033 43.076V47.73C9.94033 48.5533 10.1267 49.173 10.4993 49.589C10.8807 49.9963 11.431 50.2 12.1503 50.2C12.8697 50.2 13.4157 49.9963 13.7883 49.589C14.161 49.173 14.3473 48.5533 14.3473 47.73V43.076C14.3473 42.79 14.4167 42.5777 14.5553 42.439C14.7027 42.3003 14.9107 42.231 15.1793 42.231C15.4393 42.231 15.6387 42.3003 15.7773 42.439C15.9247 42.5777 15.9983 42.79 15.9983 43.076V47.743C15.9983 48.5923 15.851 49.3073 15.5563 49.888C15.2703 50.4687 14.8413 50.9063 14.2693 51.201C13.6973 51.487 12.991 51.63 12.1503 51.63ZM18.589 51.591C18.329 51.591 18.1297 51.513 17.991 51.357C17.8523 51.201 17.783 50.9843 17.783 50.707V45.936C17.783 45.65 17.8523 45.4333 17.991 45.286C18.1297 45.13 18.329 45.052 18.589 45.052C18.849 45.052 19.0483 45.13 19.187 45.286C19.3343 45.4333 19.408 45.65 19.408 45.936V50.707C19.408 50.9843 19.3387 51.201 19.2 51.357C19.0613 51.513 18.8577 51.591 18.589 51.591ZM18.589 43.843C18.2857 43.843 18.0473 43.7693 17.874 43.622C17.7093 43.466 17.627 43.2537 17.627 42.985C17.627 42.7077 17.7093 42.4953 17.874 42.348C18.0473 42.2007 18.2857 42.127 18.589 42.127C18.901 42.127 19.1393 42.2007 19.304 42.348C19.4687 42.4953 19.551 42.7077 19.551 42.985C19.551 43.2537 19.4687 43.466 19.304 43.622C19.1393 43.7693 18.901 43.843 18.589 43.843ZM25.0615 51.63C24.4288 51.63 23.8698 51.5477 23.3845 51.383C22.9078 51.2183 22.5048 50.9757 22.1755 50.655C21.8461 50.3257 21.5991 49.9183 21.4345 49.433C21.2698 48.9477 21.1875 48.3843 21.1875 47.743V43.076C21.1875 42.79 21.2568 42.5777 21.3955 42.439C21.5428 42.3003 21.7508 42.231 22.0195 42.231C22.2881 42.231 22.4918 42.3003 22.6305 42.439C22.7778 42.5777 22.8515 42.79 22.8515 43.076V47.73C22.8515 48.5533 23.0378 49.173 23.4105 49.589C23.7918 49.9963 24.3421 50.2 25.0615 50.2C25.7808 50.2 26.3268 49.9963 26.6995 49.589C27.0721 49.173 27.2585 48.5533 27.2585 47.73V43.076C27.2585 42.79 27.3278 42.5777 27.4665 42.439C27.6138 42.3003 27.8218 42.231 28.0905 42.231C28.3505 42.231 28.5498 42.3003 28.6885 42.439C28.8358 42.5777 28.9095 42.79 28.9095 43.076V47.743C28.9095 48.5923 28.7621 49.3073 28.4675 49.888C28.1815 50.4687 27.7525 50.9063 27.1805 51.201C26.6085 51.487 25.9021 51.63 25.0615 51.63ZM31.1361 51.565C30.9455 51.565 30.7851 51.513 30.6551 51.409C30.5338 51.2963 30.4688 51.1533 30.4601 50.98C30.4601 50.8067 30.5338 50.6247 30.6811 50.434L32.7871 47.834V48.601L30.8111 46.17C30.6551 45.9793 30.5815 45.7973 30.5901 45.624C30.5988 45.4507 30.6638 45.312 30.7851 45.208C30.9151 45.0953 31.0755 45.039 31.2661 45.039C31.4655 45.039 31.6301 45.0737 31.7601 45.143C31.8988 45.2123 32.0245 45.3207 32.1371 45.468L33.6971 47.47H33.1251L34.6981 45.468C34.8195 45.3207 34.9451 45.2123 35.0751 45.143C35.2051 45.0737 35.3655 45.039 35.5561 45.039C35.7555 45.039 35.9158 45.0953 36.0371 45.208C36.1585 45.3207 36.2191 45.4637 36.2191 45.637C36.2278 45.8103 36.1541 45.9923 35.9981 46.183L34.0351 48.588V47.86L36.1411 50.434C36.2971 50.616 36.3708 50.7937 36.3621 50.967C36.3535 51.1403 36.2841 51.2833 36.1541 51.396C36.0328 51.5087 35.8725 51.565 35.6731 51.565C35.4825 51.565 35.3221 51.5303 35.1921 51.461C35.0621 51.3917 34.9365 51.2833 34.8151 51.136L33.1251 49.004H33.6711L31.9941 51.136C31.8815 51.2747 31.7601 51.383 31.6301 51.461C31.5001 51.5303 31.3355 51.565 31.1361 51.565ZM42.0548 51.63C41.1708 51.63 40.3951 51.435 39.7278 51.045C39.0691 50.655 38.5578 50.109 38.1938 49.407C37.8298 48.6963 37.6478 47.8643 37.6478 46.911C37.6478 46.1917 37.7518 45.546 37.9598 44.974C38.1678 44.3933 38.4625 43.8993 38.8438 43.492C39.2338 43.076 39.6975 42.7597 40.2348 42.543C40.7808 42.3177 41.3875 42.205 42.0548 42.205C42.9475 42.205 43.7231 42.4 44.3818 42.79C45.0405 43.1713 45.5518 43.713 45.9158 44.415C46.2798 45.117 46.4618 45.9447 46.4618 46.898C46.4618 47.6173 46.3578 48.2673 46.1498 48.848C45.9418 49.4287 45.6428 49.927 45.2528 50.343C44.8715 50.759 44.4078 51.0797 43.8618 51.305C43.3245 51.5217 42.7221 51.63 42.0548 51.63ZM42.0548 50.2C42.6181 50.2 43.0948 50.07 43.4848 49.81C43.8835 49.55 44.1868 49.173 44.3948 48.679C44.6115 48.185 44.7198 47.5957 44.7198 46.911C44.7198 45.871 44.4858 45.065 44.0178 44.493C43.5585 43.921 42.9041 43.635 42.0548 43.635C41.5001 43.635 41.0235 43.765 40.6248 44.025C40.2261 44.2763 39.9185 44.649 39.7018 45.143C39.4938 45.6283 39.3898 46.2177 39.3898 46.911C39.3898 47.9423 39.6238 48.7483 40.0918 49.329C40.5598 49.9097 41.2141 50.2 42.0548 50.2ZM50.9098 51.63C50.3465 51.63 49.8742 51.5347 49.4928 51.344C49.1202 51.1533 48.8428 50.876 48.6608 50.512C48.4788 50.1393 48.3878 49.68 48.3878 49.134V46.365H47.7118C47.5038 46.365 47.3435 46.313 47.2308 46.209C47.1182 46.0963 47.0618 45.9447 47.0618 45.754C47.0618 45.5547 47.1182 45.403 47.2308 45.299C47.3435 45.195 47.5038 45.143 47.7118 45.143H48.3878V43.96C48.3878 43.6913 48.4572 43.4877 48.5958 43.349C48.7432 43.2103 48.9468 43.141 49.2068 43.141C49.4668 43.141 49.6662 43.2103 49.8048 43.349C49.9435 43.4877 50.0128 43.6913 50.0128 43.96V45.143H51.3908C51.5988 45.143 51.7592 45.195 51.8718 45.299C51.9845 45.403 52.0408 45.5547 52.0408 45.754C52.0408 45.9447 51.9845 46.0963 51.8718 46.209C51.7592 46.313 51.5988 46.365 51.3908 46.365H50.0128V49.043C50.0128 49.459 50.1038 49.771 50.2858 49.979C50.4678 50.187 50.7625 50.291 51.1698 50.291C51.3172 50.291 51.4472 50.278 51.5598 50.252C51.6725 50.226 51.7722 50.2087 51.8588 50.2C51.9628 50.1913 52.0495 50.226 52.1188 50.304C52.1882 50.3733 52.2228 50.5207 52.2228 50.746C52.2228 50.9193 52.1925 51.0753 52.1318 51.214C52.0798 51.344 51.9802 51.435 51.8328 51.487C51.7202 51.5217 51.5728 51.552 51.3908 51.578C51.2088 51.6127 51.0485 51.63 50.9098 51.63ZM55.8226 51.63C55.1639 51.63 54.5919 51.4957 54.1066 51.227C53.6213 50.9583 53.2443 50.577 52.9756 50.083C52.7069 49.5803 52.5726 48.991 52.5726 48.315C52.5726 47.8037 52.6463 47.3487 52.7936 46.95C52.9496 46.5427 53.1706 46.196 53.4566 45.91C53.7426 45.6153 54.0849 45.3943 54.4836 45.247C54.8823 45.091 55.3286 45.013 55.8226 45.013C56.4813 45.013 57.0533 45.1473 57.5386 45.416C58.0239 45.6847 58.4009 46.066 58.6696 46.56C58.9383 47.054 59.0726 47.639 59.0726 48.315C59.0726 48.8263 58.9946 49.2857 58.8386 49.693C58.6913 50.1003 58.4746 50.4513 58.1886 50.746C57.9026 51.032 57.5603 51.253 57.1616 51.409C56.7629 51.5563 56.3166 51.63 55.8226 51.63ZM55.8226 50.395C56.1433 50.395 56.4249 50.317 56.6676 50.161C56.9103 50.005 57.0966 49.7753 57.2266 49.472C57.3653 49.16 57.4346 48.7743 57.4346 48.315C57.4346 47.6217 57.2873 47.106 56.9926 46.768C56.6979 46.4213 56.3079 46.248 55.8226 46.248C55.5019 46.248 55.2203 46.326 54.9776 46.482C54.7349 46.6293 54.5443 46.859 54.4056 47.171C54.2756 47.4743 54.2106 47.8557 54.2106 48.315C54.2106 48.9997 54.3579 49.5197 54.6526 49.875C54.9473 50.2217 55.3373 50.395 55.8226 50.395ZM61.2458 51.604C60.9772 51.604 60.7692 51.5347 60.6218 51.396C60.4832 51.2487 60.4138 51.0407 60.4138 50.772V45.858C60.4138 45.5893 60.4832 45.3857 60.6218 45.247C60.7605 45.1083 60.9555 45.039 61.2068 45.039C61.4582 45.039 61.6532 45.1083 61.7918 45.247C61.9305 45.3857 61.9998 45.5893 61.9998 45.858V46.677H61.8698C61.9912 46.157 62.2295 45.7627 62.5848 45.494C62.9402 45.2253 63.4125 45.065 64.0018 45.013C64.1838 44.9957 64.3268 45.0433 64.4308 45.156C64.5435 45.26 64.6085 45.4247 64.6258 45.65C64.6432 45.8667 64.5912 46.0443 64.4698 46.183C64.3572 46.313 64.1838 46.391 63.9498 46.417L63.6638 46.443C63.1352 46.495 62.7365 46.6597 62.4678 46.937C62.1992 47.2057 62.0648 47.587 62.0648 48.081V50.772C62.0648 51.0407 61.9955 51.2487 61.8568 51.396C61.7182 51.5347 61.5145 51.604 61.2458 51.604Z" fill="url(#paint0_linear_2008_2447)"/>
<path d="M2.18817 67.5C1.9975 67.5 1.85017 67.4523 1.74617 67.357C1.65083 67.253 1.60317 67.1057 1.60317 66.915V58.92C1.60317 58.7293 1.65083 58.5863 1.74617 58.491C1.85017 58.387 1.9975 58.335 2.18817 58.335H7.02417C7.1715 58.335 7.28417 58.374 7.36217 58.452C7.44017 58.53 7.47917 58.6383 7.47917 58.777C7.47917 58.9243 7.44017 59.037 7.36217 59.115C7.28417 59.193 7.1715 59.232 7.02417 59.232H2.64317V62.404H6.75117C6.8985 62.404 7.01117 62.443 7.08917 62.521C7.16717 62.5903 7.20617 62.6987 7.20617 62.846C7.20617 62.9933 7.16717 63.106 7.08917 63.184C7.01117 63.262 6.8985 63.301 6.75117 63.301H2.64317V66.603H7.02417C7.1715 66.603 7.28417 66.642 7.36217 66.72C7.44017 66.798 7.47917 66.9063 7.47917 67.045C7.47917 67.1923 7.44017 67.305 7.36217 67.383C7.28417 67.461 7.1715 67.5 7.02417 67.5H2.18817ZM9.71527 67.591C9.54194 67.591 9.4076 67.5433 9.31227 67.448C9.2256 67.344 9.18227 67.2053 9.18227 67.032V58.881C9.18227 58.699 9.22994 58.5647 9.32527 58.478C9.4206 58.3827 9.55494 58.335 9.72827 58.335H12.8093C13.7886 58.335 14.5426 58.5647 15.0713 59.024C15.5999 59.4833 15.8643 60.1377 15.8643 60.987C15.8643 61.5243 15.7429 61.9923 15.5003 62.391C15.2663 62.781 14.9196 63.08 14.4603 63.288C14.0009 63.4873 13.4506 63.587 12.8093 63.587L12.9393 63.418H13.1993C13.5373 63.418 13.8319 63.5047 14.0833 63.678C14.3346 63.8513 14.5643 64.1287 14.7723 64.51L16.0203 66.837C16.0896 66.9583 16.1199 67.0797 16.1113 67.201C16.1113 67.3137 16.0723 67.409 15.9943 67.487C15.9163 67.5563 15.8036 67.591 15.6563 67.591C15.5089 67.591 15.3876 67.5563 15.2923 67.487C15.1969 67.4177 15.1146 67.318 15.0453 67.188L13.6283 64.562C13.4289 64.1893 13.1993 63.9423 12.9393 63.821C12.6793 63.691 12.3369 63.626 11.9123 63.626H10.2483V67.032C10.2483 67.2053 10.2049 67.344 10.1183 67.448C10.0316 67.5433 9.89727 67.591 9.71527 67.591ZM10.2483 62.781H12.6533C13.3639 62.781 13.9013 62.6337 14.2653 62.339C14.6293 62.0357 14.8113 61.585 14.8113 60.987C14.8113 60.4063 14.6293 59.9687 14.2653 59.674C13.9013 59.3707 13.3639 59.219 12.6533 59.219H10.2483V62.781ZM18.4116 67.591C18.2382 67.591 18.1039 67.5433 18.0086 67.448C17.9219 67.344 17.8786 67.2053 17.8786 67.032V58.881C17.8786 58.699 17.9262 58.5647 18.0216 58.478C18.1169 58.3827 18.2512 58.335 18.4246 58.335H21.5056C22.4849 58.335 23.2389 58.5777 23.7676 59.063C24.2962 59.5397 24.5606 60.2157 24.5606 61.091C24.5606 61.9577 24.2962 62.6337 23.7676 63.119C23.2389 63.6043 22.4849 63.847 21.5056 63.847H18.9446V67.032C18.9446 67.2053 18.9012 67.344 18.8146 67.448C18.7279 67.5433 18.5936 67.591 18.4116 67.591ZM18.9446 62.95H21.3756C22.0776 62.95 22.6062 62.794 22.9616 62.482C23.3256 62.1613 23.5076 61.6977 23.5076 61.091C23.5076 60.4757 23.3256 60.012 22.9616 59.7C22.6062 59.3793 22.0776 59.219 21.3756 59.219H18.9446V62.95ZM32.4207 67.617C32.0134 67.617 31.6147 67.5823 31.2247 67.513C30.8347 67.4437 30.4707 67.344 30.1327 67.214C29.8034 67.084 29.5044 66.9193 29.2357 66.72C29.1317 66.642 29.058 66.5553 29.0147 66.46C28.98 66.356 28.9714 66.2563 28.9887 66.161C29.0147 66.057 29.058 65.9703 29.1187 65.901C29.188 65.8317 29.2704 65.7927 29.3657 65.784C29.461 65.7753 29.565 65.8057 29.6777 65.875C30.0677 66.1523 30.4837 66.356 30.9257 66.486C31.3677 66.6073 31.866 66.668 32.4207 66.668C33.2007 66.668 33.777 66.525 34.1497 66.239C34.531 65.9443 34.7217 65.5587 34.7217 65.082C34.7217 64.692 34.583 64.3887 34.3057 64.172C34.037 63.9467 33.582 63.769 32.9407 63.639L31.5887 63.366C30.774 63.1927 30.163 62.911 29.7557 62.521C29.357 62.1223 29.1577 61.5937 29.1577 60.935C29.1577 60.5277 29.24 60.1593 29.4047 59.83C29.5694 59.492 29.799 59.206 30.0937 58.972C30.3884 58.7293 30.7394 58.543 31.1467 58.413C31.554 58.283 32.0047 58.218 32.4987 58.218C33.0447 58.218 33.5517 58.296 34.0197 58.452C34.4964 58.5993 34.9254 58.8247 35.3067 59.128C35.402 59.206 35.467 59.297 35.5017 59.401C35.5364 59.4963 35.5407 59.5917 35.5147 59.687C35.4887 59.7737 35.441 59.8473 35.3717 59.908C35.311 59.9687 35.2287 60.0033 35.1247 60.012C35.0294 60.0207 34.921 59.986 34.7997 59.908C34.453 59.648 34.0934 59.4617 33.7207 59.349C33.348 59.2277 32.9364 59.167 32.4857 59.167C32.0264 59.167 31.6277 59.2363 31.2897 59.375C30.9604 59.5137 30.7004 59.7173 30.5097 59.986C30.3277 60.246 30.2367 60.5493 30.2367 60.896C30.2367 61.312 30.3624 61.6413 30.6137 61.884C30.8737 62.1267 31.294 62.3043 31.8747 62.417L33.2267 62.703C34.102 62.885 34.7477 63.1623 35.1637 63.535C35.5884 63.899 35.8007 64.3973 35.8007 65.03C35.8007 65.4113 35.7227 65.7623 35.5667 66.083C35.4107 66.4037 35.1854 66.681 34.8907 66.915C34.596 67.1403 34.2407 67.3137 33.8247 67.435C33.4087 67.5563 32.9407 67.617 32.4207 67.617ZM38.6396 69.931C38.5096 69.931 38.4056 69.8963 38.3276 69.827C38.2496 69.7577 38.2019 69.6623 38.1846 69.541C38.1759 69.4283 38.1976 69.3113 38.2496 69.19L39.1466 67.175V67.63L36.6506 61.832C36.5986 61.702 36.5812 61.5807 36.5986 61.468C36.6159 61.3553 36.6679 61.2643 36.7546 61.195C36.8412 61.1257 36.9626 61.091 37.1186 61.091C37.2572 61.091 37.3656 61.1213 37.4436 61.182C37.5216 61.2427 37.5909 61.351 37.6516 61.507L39.7836 66.733H39.4326L41.5906 61.507C41.6599 61.351 41.7336 61.2427 41.8116 61.182C41.8896 61.1213 42.0022 61.091 42.1496 61.091C42.2882 61.091 42.3922 61.1257 42.4616 61.195C42.5396 61.2643 42.5829 61.3553 42.5916 61.468C42.6089 61.572 42.5916 61.689 42.5396 61.819L39.2116 69.515C39.1422 69.671 39.0642 69.7793 38.9776 69.84C38.8996 69.9007 38.7869 69.931 38.6396 69.931ZM45.9183 67.617C45.5283 67.617 45.134 67.5693 44.7353 67.474C44.3453 67.3787 43.9813 67.214 43.6433 66.98C43.5567 66.9193 43.496 66.85 43.4613 66.772C43.4267 66.6853 43.4137 66.603 43.4223 66.525C43.4397 66.4383 43.4743 66.3647 43.5263 66.304C43.587 66.2433 43.6563 66.2087 43.7343 66.2C43.821 66.1827 43.9163 66.2 44.0203 66.252C44.3583 66.46 44.6833 66.6073 44.9953 66.694C45.316 66.772 45.6323 66.811 45.9443 66.811C46.4383 66.811 46.811 66.72 47.0623 66.538C47.3137 66.356 47.4393 66.109 47.4393 65.797C47.4393 65.5543 47.357 65.3637 47.1923 65.225C47.0277 65.0777 46.7677 64.965 46.4123 64.887L45.2293 64.627C44.6833 64.5143 44.276 64.3193 44.0073 64.042C43.7473 63.7647 43.6173 63.405 43.6173 62.963C43.6173 62.573 43.717 62.2393 43.9163 61.962C44.1243 61.676 44.4147 61.455 44.7873 61.299C45.16 61.143 45.5933 61.065 46.0873 61.065C46.4687 61.065 46.8283 61.117 47.1663 61.221C47.513 61.3163 47.825 61.4723 48.1023 61.689C48.189 61.7497 48.2453 61.8233 48.2713 61.91C48.306 61.988 48.3103 62.0703 48.2843 62.157C48.267 62.235 48.228 62.3043 48.1673 62.365C48.1067 62.417 48.033 62.4473 47.9463 62.456C47.8597 62.4647 47.7687 62.4387 47.6733 62.378C47.4133 62.2047 47.149 62.079 46.8803 62.001C46.6117 61.9143 46.3473 61.871 46.0873 61.871C45.602 61.871 45.2337 61.9663 44.9823 62.157C44.731 62.3477 44.6053 62.599 44.6053 62.911C44.6053 63.1537 44.6833 63.353 44.8393 63.509C44.9953 63.665 45.238 63.7777 45.5673 63.847L46.7503 64.094C47.3137 64.2153 47.734 64.4103 48.0113 64.679C48.2973 64.939 48.4403 65.2943 48.4403 65.745C48.4403 66.317 48.2107 66.772 47.7513 67.11C47.292 67.448 46.681 67.617 45.9183 67.617ZM52.5167 67.617C52.0227 67.617 51.6067 67.5303 51.2687 67.357C50.9393 67.175 50.6923 66.915 50.5277 66.577C50.363 66.2303 50.2807 65.81 50.2807 65.316V62.001H49.4097C49.2623 62.001 49.1497 61.9663 49.0717 61.897C48.9937 61.819 48.9547 61.715 48.9547 61.585C48.9547 61.455 48.9937 61.3553 49.0717 61.286C49.1497 61.2167 49.2623 61.182 49.4097 61.182H50.2807V59.687C50.2807 59.5137 50.3283 59.3837 50.4237 59.297C50.519 59.2017 50.649 59.154 50.8137 59.154C50.9783 59.154 51.104 59.2017 51.1907 59.297C51.286 59.3837 51.3337 59.5137 51.3337 59.687V61.182H52.9717C53.119 61.182 53.2317 61.2167 53.3097 61.286C53.3877 61.3553 53.4267 61.455 53.4267 61.585C53.4267 61.715 53.3877 61.819 53.3097 61.897C53.2317 61.9663 53.119 62.001 52.9717 62.001H51.3337V65.212C51.3337 65.706 51.4377 66.083 51.6457 66.343C51.8537 66.5943 52.1917 66.72 52.6597 66.72C52.8243 66.72 52.963 66.7027 53.0757 66.668C53.197 66.6333 53.2967 66.616 53.3747 66.616C53.4527 66.6073 53.5177 66.6333 53.5697 66.694C53.6217 66.7547 53.6477 66.8587 53.6477 67.006C53.6477 67.11 53.626 67.2053 53.5827 67.292C53.548 67.3787 53.483 67.4393 53.3877 67.474C53.2837 67.5087 53.145 67.539 52.9717 67.565C52.807 67.5997 52.6553 67.617 52.5167 67.617ZM57.3101 67.617C56.6428 67.617 56.0664 67.487 55.5811 67.227C55.1044 66.9583 54.7318 66.5813 54.4631 66.096C54.2031 65.6107 54.0731 65.03 54.0731 64.354C54.0731 63.6953 54.2031 63.1233 54.4631 62.638C54.7231 62.144 55.0784 61.7583 55.5291 61.481C55.9884 61.2037 56.5171 61.065 57.1151 61.065C57.5398 61.065 57.9211 61.1387 58.2591 61.286C58.5971 61.4247 58.8831 61.6283 59.1171 61.897C59.3598 62.1657 59.5418 62.4907 59.6631 62.872C59.7931 63.2533 59.8581 63.6823 59.8581 64.159C59.8581 64.2977 59.8191 64.4017 59.7411 64.471C59.6631 64.5317 59.5504 64.562 59.4031 64.562H54.8791V63.873H59.1561L58.9481 64.042C58.9481 63.574 58.8788 63.1797 58.7401 62.859C58.6014 62.5297 58.3978 62.2783 58.1291 62.105C57.8691 61.9317 57.5398 61.845 57.1411 61.845C56.6991 61.845 56.3221 61.949 56.0101 62.157C55.7068 62.3563 55.4771 62.638 55.3211 63.002C55.1651 63.3573 55.0871 63.7733 55.0871 64.25V64.328C55.0871 65.1253 55.2778 65.732 55.6591 66.148C56.0491 66.564 56.5994 66.772 57.3101 66.772C57.6048 66.772 57.8951 66.733 58.1811 66.655C58.4758 66.577 58.7618 66.447 59.0391 66.265C59.1604 66.187 59.2688 66.1523 59.3641 66.161C59.4681 66.161 59.5504 66.1913 59.6111 66.252C59.6718 66.304 59.7108 66.3733 59.7281 66.46C59.7541 66.538 59.7454 66.6247 59.7021 66.72C59.6674 66.8153 59.5938 66.8977 59.4811 66.967C59.1951 67.175 58.8571 67.3353 58.4671 67.448C58.0771 67.5607 57.6914 67.617 57.3101 67.617ZM61.928 67.591C61.7547 67.591 61.6247 67.5433 61.538 67.448C61.4514 67.3527 61.408 67.2183 61.408 67.045V61.624C61.408 61.4507 61.4514 61.3207 61.538 61.234C61.6247 61.1387 61.7504 61.091 61.915 61.091C62.0797 61.091 62.2054 61.1387 62.292 61.234C62.3874 61.3207 62.435 61.4507 62.435 61.624V62.768L62.292 62.586C62.4567 62.1007 62.721 61.728 63.085 61.468C63.4577 61.1993 63.8997 61.065 64.411 61.065C64.9484 61.065 65.3817 61.195 65.711 61.455C66.049 61.7063 66.2744 62.1007 66.387 62.638H66.192C66.348 62.1527 66.6254 61.7713 67.024 61.494C67.4314 61.208 67.9037 61.065 68.441 61.065C68.9177 61.065 69.3077 61.156 69.611 61.338C69.923 61.52 70.157 61.7973 70.313 62.17C70.469 62.534 70.547 62.9977 70.547 63.561V67.045C70.547 67.2183 70.4994 67.3527 70.404 67.448C70.3174 67.5433 70.1874 67.591 70.014 67.591C69.8494 67.591 69.7194 67.5433 69.624 67.448C69.5374 67.3527 69.494 67.2183 69.494 67.045V63.613C69.494 63.0323 69.3944 62.6077 69.195 62.339C68.9957 62.0617 68.6577 61.923 68.181 61.923C67.661 61.923 67.2494 62.105 66.946 62.469C66.6514 62.8243 66.504 63.3097 66.504 63.925V67.045C66.504 67.2183 66.4564 67.3527 66.361 67.448C66.2744 67.5433 66.1444 67.591 65.971 67.591C65.8064 67.591 65.6764 67.5433 65.581 67.448C65.4944 67.3527 65.451 67.2183 65.451 67.045V63.613C65.451 63.0323 65.347 62.6077 65.139 62.339C64.9397 62.0617 64.606 61.923 64.138 61.923C63.618 61.923 63.2064 62.105 62.903 62.469C62.6084 62.8243 62.461 63.3097 62.461 63.925V67.045C62.461 67.409 62.2834 67.591 61.928 67.591Z" fill="#272525"/>
<defs>
<linearGradient id="paint0_linear_2008_2447" x1="0" y1="39.5" x2="23.7526" y2="92.9433" gradientUnits="userSpaceOnUse">
<stop stop-color="#14ADD6"/>
<stop offset="1" stop-color="#384295"/>
</linearGradient>
</defs>
</svg>
